<svg xmlns="http://www.w3.org/2000/svg" width="960" height="560" viewBox="0 0 960 560" role="img" aria-label="Automations · New automation">
  <defs>
    <linearGradient id="bg" x1="0" y1="0" x2="1" y2="1">
      <stop offset="0%" stop-color="#f8fafc"/>
      <stop offset="100%" stop-color="#eef2ff"/>
    </linearGradient>
  </defs>
  <rect width="960" height="560" fill="url(#bg)"/>
  <rect x="32" y="28" width="896" height="504" rx="16" fill="#ffffff" stroke="#e5e7eb"/>
  <text x="56" y="68" font-family="ui-sans-serif, system-ui, sans-serif" font-size="18" font-weight="600" fill="#111827">Automations · New automation</text>
  <text x="56" y="92" font-family="ui-sans-serif, system-ui, sans-serif" font-size="12" fill="#6b7280">Sample UI · schedule trigger selected</text>
  <rect x="56" y="120" width="848" height="380" rx="12" fill="#fff" stroke="#e5e7eb"/>
  <text x="76" y="156" font-family="ui-sans-serif, system-ui, sans-serif" font-size="13" font-weight="600" fill="#374151">Name</text>
  <rect x="76" y="166" width="360" height="40" rx="8" fill="#f9fafb" stroke="#d1d5db"/>
  <text x="90" y="191" font-family="ui-sans-serif, system-ui, sans-serif" font-size="14" fill="#111827">Friday team status</text>
  <text x="480" y="156" font-family="ui-sans-serif, system-ui, sans-serif" font-size="13" font-weight="600" fill="#374151">Workflow</text>
  <rect x="480" y="166" width="420" height="40" rx="8" fill="#f9fafb" stroke="#d1d5db"/>
  <text x="494" y="191" font-family="ui-sans-serif, system-ui, sans-serif" font-size="14" fill="#111827">Weekly team status</text>
  <text x="76" y="240" font-family="ui-sans-serif, system-ui, sans-serif" font-size="13" font-weight="600" fill="#374151">Trigger</text>
  <rect x="76" y="250" width="120" height="32" rx="8" fill="#18181b"/>
  <text x="98" y="271" font-family="ui-sans-serif, system-ui, sans-serif" font-size="12" font-weight="500" fill="#ffffff">Schedule</text>
  <rect x="206" y="250" width="120" height="32" rx="8" fill="#f9fafb" stroke="#d1d5db"/>
  <text x="228" y="271" font-family="ui-sans-serif, system-ui, sans-serif" font-size="12" fill="#374151">Webhook</text>
  <text x="76" y="316" font-family="ui-sans-serif, system-ui, sans-serif" font-size="13" font-weight="600" fill="#374151">Schedule</text>
  <rect x="76" y="326" width="200" height="40" rx="8" fill="#f9fafb" stroke="#d1d5db"/>
  <text x="90" y="351" font-family="ui-sans-serif, system-ui, sans-serif" font-size="14" fill="#111827">Weekdays · 09:00 Europe/Berlin</text>
  <text x="76" y="396" font-family="ui-sans-serif, system-ui, sans-serif" font-size="13" font-weight="600" fill="#374151">Highlights</text>
  <rect x="76" y="406" width="824" height="48" rx="8" fill="#f9fafb" stroke="#d1d5db"/>
  <text x="90" y="435" font-family="ui-sans-serif, system-ui, sans-serif" font-size="13" fill="#111827">Shipped onboarding guide and automation showcase.</text>
  <rect x="76" y="468" width="140" height="36" rx="8" fill="#18181b"/>
  <text x="104" y="491" font-family="ui-sans-serif, system-ui, sans-serif" font-size="13" font-weight="500" fill="#ffffff">Create automation</text>
</svg>
