<svg
  width="24"
  height="24"
  viewBox="0 0 24 24"
  fill="none"
  xmlns="http://www.w3.org/2000/svg"
>
  <path
    fill-rule="evenodd"
    clip-rule="evenodd"
    d="M11.078 2.25c-.917 0-1.699.663-1.85 1.567L9.05 4.889c-.02.12-.115.26-.297.348a7.493 7.493 0 0 0-.986.57c-.166.115-.334.126-.45.083L6.3 5.508a1.875 1.875 0 0 0-2.282.819l-.922 1.597a1.875 1.875 0 0 0 .432 2.385l1.17 1.004c.086.074.141.181.141.292 0 .111-.055.218-.141.292l-1.17 1.004a1.875 1.875 0 0 0-.432 2.385l.922 1.597a1.875 1.875 0 0 0 2.282.818l1.019-.382c.115-.043.284-.031.45.082.312.214.641.405.986.57.182.088.277.228.297.348l.178 1.071c.151.905.933 1.567 1.85 1.567h1.844c.916 0 1.699-.662 1.85-1.567l.178-1.072c.02-.12.114-.26.297-.349.345-.165.674-.356.986-.57.167-.114.335-.125.45-.082l1.02.382a1.875 1.875 0 0 0 2.28-.819l.923-1.597a1.875 1.875 0 0 0-.432-2.385l-1.17-1.004a.375.375 0 0 1-.141-.292c0-.111.055-.218.141-.292l1.17-1.004a1.875 1.875 0 0 0 .432-2.385l-.922-1.597a1.875 1.875 0 0 0-2.282-.818l-1.02.382c-.114.043-.282.031-.449-.083a7.49 7.49 0 0 0-.985-.57c-.183-.087-.277-.227-.297-.348L13.93 3.817c-.151-.905-.933-1.567-1.85-1.567h-1.844ZM12 15.75a3.75 3.75 0 1 0 0-7.5 3.75 3.75 0 0 0 0 7.5Z"
    fill="currentColor"
  />
</svg>
