<svg
  width="20"
  height="20"
  viewBox="0 0 20 20"
  fill="none"
  xmlns="http://www.w3.org/2000/svg"
>
  <path
    fill-rule="evenodd"
    clip-rule="evenodd"
    d="M5.25 2.5C4.83579 2.5 4.5 2.83579 4.5 3.25V4.75C4.5 5.04357 4.62986 5.32083 4.85355 5.50888L8.25 8.38197V8.5L4.85355 12.4911C4.62986 12.6792 4.5 12.9564 4.5 13.25V14.75C4.5 15.1642 4.83579 15.5 5.25 15.5H14.75C15.1642 15.5 15.5 15.1642 15.5 14.75V13.25C15.5 12.9564 15.3701 12.6792 15.1464 12.4911L11.75 8.5V8.38197L15.1464 5.50888C15.3701 5.32083 15.5 5.04357 15.5 4.75V3.25C15.5 2.83579 15.1642 2.5 14.75 2.5H5.25ZM6 4H14V4.61803L10.8536 7.30866C10.6583 7.48111 10.3417 7.48111 10.1464 7.30866L7 4.61803V4ZM7 12.6913L10.1464 9.69134C10.3417 9.51889 10.6583 9.51889 10.8536 9.69134L14 12.6913V14H6V12.6913Z"
    fill="currentColor"
  />
</svg>
