<svg xmlns="http://www.w3.org/2000/svg" width="960" height="560" viewBox="0 0 960 560" role="img" aria-label="Team dispatch request">
  <defs><linearGradient id="bg" x1="0" y1="0" x2="1" y2="1"><stop offset="0%" stop-color="#f8fafc"/><stop offset="100%" stop-color="#eef2ff"/></linearGradient></defs>
  <rect width="960" height="560" fill="url(#bg)"/>
  <rect x="32" y="28" width="896" height="504" rx="16" fill="#fff" stroke="#e5e7eb"/>
  <text x="56" y="68" font-family="ui-sans-serif,system-ui,sans-serif" font-size="18" font-weight="600" fill="#111827">Send a task</text>
  <text x="56" y="92" font-family="ui-sans-serif,system-ui,sans-serif" font-size="12" fill="#6b7280">Product UI  team dispatch</text>
  <text x="56" y="132" font-family="ui-sans-serif,system-ui,sans-serif" font-size="12" font-weight="600" fill="#374151">Company</text>
  <rect x="56" y="142" width="400" height="36" rx="8" fill="#fff" stroke="#d1d5db"/>
  <text x="68" y="165" font-family="ui-sans-serif,system-ui,sans-serif" font-size="13" fill="#111827">Acme Design Co (approval)</text>
  <text x="480" y="132" font-family="ui-sans-serif,system-ui,sans-serif" font-size="12" font-weight="600" fill="#374151">Teammate</text>
  <rect x="480" y="142" width="400" height="36" rx="8" fill="#fff" stroke="#d1d5db"/>
  <text x="492" y="165" font-family="ui-sans-serif,system-ui,sans-serif" font-size="13" fill="#111827">Alex Chen</text>
  <text x="56" y="210" font-family="ui-sans-serif,system-ui,sans-serif" font-size="12" font-weight="600" fill="#374151">Their workflow</text>
  <rect x="56" y="220" width="824" height="36" rx="8" fill="#fff" stroke="#d1d5db"/>
  <text x="68" y="243" font-family="ui-sans-serif,system-ui,sans-serif" font-size="13" fill="#111827">Repo branch standup (teammate Mac)</text>
  <text x="56" y="290" font-family="ui-sans-serif,system-ui,sans-serif" font-size="12" font-weight="600" fill="#374151">Prompt</text>
  <rect x="56" y="300" width="824" height="88" rx="8" fill="#f9fafb" stroke="#d1d5db"/>
  <text x="68" y="328" font-family="ui-sans-serif,system-ui,sans-serif" font-size="12" fill="#374151">Summarize commits on feature/checkout since yesterday for standup.</text>
  <rect x="56" y="420" width="120" height="40" rx="8" fill="#111827"/>
  <text x="88" y="445" font-family="ui-sans-serif,system-ui,sans-serif" font-size="13" font-weight="600" fill="#fff">Send</text>
</svg>
